M48
; DRILL file {KiCad (5.1.9-0-10_14)} date Saturday, July 10, 2021 at 04:26:04 PM
; FORMAT={-:-/ absolute / inch / decimal}
; #@! TF.CreationDate,2021-07-10T16:26:04+02:00
; #@! TF.GenerationSoftware,Kicad,Pcbnew,(5.1.9-0-10_14)
; #@! TF.FileFunction,Plated,1,2,PTH
FMAT,2
INCH
T1C0.0394
T2C0.0472
T3C0.0606
T4C0.1000
T5C0.1260
%
G90
G05
T2
X3.055Y-3.15
X4.01Y-3.1
X4.11Y-3.1
X5.065Y-3.15
T4
X4.06Y-2.555
T5
X4.06Y-2.83
T1
G00X3.1655Y-2.8048
M15
G01X3.1655Y-2.7852
M16
G05
G00X3.1655Y-3.0548
M15
G01X3.1655Y-3.0352
M16
G05
G00X3.1705Y-2.5585
M15
G01X3.1705Y-2.5388
M16
G05
G00X3.8045Y-2.5548
M15
G01X3.8045Y-2.5352
M16
G05
G00X3.8045Y-2.8048
M15
G01X3.8045Y-2.7852
M16
G05
G00X3.8045Y-3.0548
M15
G01X3.8045Y-3.0352
M16
G05
G00X4.3155Y-2.5548
M15
G01X4.3155Y-2.5352
M16
G05
G00X4.3155Y-2.8048
M15
G01X4.3155Y-2.7852
M16
G05
G00X4.3155Y-3.0548
M15
G01X4.3155Y-3.0352
M16
G05
G00X4.9545Y-2.5548
M15
G01X4.9545Y-2.5352
M16
G05
G00X4.9545Y-2.8048
M15
G01X4.9545Y-2.7852
M16
G05
G00X4.9545Y-3.0548
M15
G01X4.9545Y-3.0352
M16
G05
T3
G00X3.875Y-2.6603
M15
G01X3.875Y-2.6997
M16
G05
T0
M30
