G04 #@! TF.GenerationSoftware,KiCad,Pcbnew,(5.1.9-0-10_14)*
G04 #@! TF.CreationDate,2021-07-10T16:26:02+02:00*
G04 #@! TF.ProjectId,jack-power,6a61636b-2d70-46f7-9765-722e6b696361,rev?*
G04 #@! TF.SameCoordinates,Original*
G04 #@! TF.FileFunction,Legend,Top*
G04 #@! TF.FilePolarity,Positive*
%FSLAX46Y46*%
G04 Gerber Fmt 4.6, Leading zero omitted, Abs format (unit mm)*
G04 Created by KiCad (PCBNEW (5.1.9-0-10_14)) date 2021-07-10 16:26:02*
%MOMM*%
%LPD*%
G01*
G04 APERTURE LIST*
%ADD10C,0.152400*%
%ADD11C,0.127000*%
%ADD12C,0.100000*%
%ADD13C,0.254000*%
%ADD14C,0.150000*%
%ADD15C,0.101600*%
%ADD16C,0.134112*%
%ADD17C,0.121920*%
G04 APERTURE END LIST*
D10*
X98704400Y-71932800D02*
X100685600Y-71932800D01*
X98704400Y-70027800D02*
X98704400Y-71932800D01*
X98704400Y-62839600D02*
X98704400Y-66090800D01*
X100685600Y-71932800D02*
X100685600Y-64846200D01*
X100685600Y-74168000D02*
X100685600Y-71932800D01*
X105679000Y-74168000D02*
X105679000Y-71882000D01*
X100679000Y-74168000D02*
X105679000Y-74168000D01*
X107679000Y-57912000D02*
X107679000Y-61722000D01*
X98679000Y-57912000D02*
X107679000Y-57912000D01*
X98679000Y-61722000D02*
X98679000Y-57912000D01*
X100679000Y-64817000D02*
X98679000Y-62817000D01*
X105679000Y-64817000D02*
X107679000Y-62817000D01*
X105679000Y-71912000D02*
X105679000Y-64817000D01*
X98679000Y-62817000D02*
X98679000Y-61722000D01*
X107679000Y-71912000D02*
X105679000Y-71912000D01*
X107679000Y-62817000D02*
X107679000Y-71912000D01*
X107679000Y-61722000D02*
X107679000Y-62817000D01*
X98679000Y-61722000D02*
X107679000Y-61722000D01*
D11*
X117729000Y-63373000D02*
X118364000Y-62738000D01*
X117729000Y-63373000D02*
X117094000Y-62738000D01*
X117729000Y-62103000D02*
X117729000Y-63373000D01*
D12*
G36*
X121539000Y-68453000D02*
G01*
X121539000Y-67183000D01*
X113919000Y-67183000D01*
X113919000Y-68453000D01*
X121539000Y-68453000D01*
G37*
G36*
X121539000Y-73533000D02*
G01*
X121539000Y-72263000D01*
X113919000Y-72263000D01*
X113919000Y-73533000D01*
X121539000Y-73533000D01*
G37*
D13*
X121539000Y-74168000D02*
X121539000Y-61048000D01*
X120269000Y-75438000D02*
X121539000Y-74168000D01*
X121539000Y-76708000D02*
X120269000Y-75438000D01*
X117729000Y-80518000D02*
X121539000Y-76708000D01*
X113919000Y-76708000D02*
X117729000Y-80518000D01*
X115189000Y-75438000D02*
X113919000Y-76708000D01*
X113919000Y-74168000D02*
X115189000Y-75438000D01*
X113919000Y-61048000D02*
X113919000Y-74168000D01*
X113479000Y-84243000D02*
X113479000Y-81243000D01*
X121979000Y-84243000D02*
X113479000Y-84243000D01*
X121979000Y-81243000D02*
X121979000Y-84243000D01*
X123429000Y-57693000D02*
X123429000Y-60643000D01*
X112029000Y-57693000D02*
X123429000Y-57693000D01*
X112029000Y-60643000D02*
X112029000Y-57693000D01*
X112029000Y-60643000D02*
X108629000Y-60643000D01*
X123429000Y-60643000D02*
X112029000Y-60643000D01*
X126829000Y-60643000D02*
X123429000Y-60643000D01*
X126829000Y-81243000D02*
X126829000Y-60643000D01*
X121979000Y-81243000D02*
X126829000Y-81243000D01*
X113479000Y-81243000D02*
X121979000Y-81243000D01*
X108629000Y-81243000D02*
X113479000Y-81243000D01*
X108629000Y-60643000D02*
X108629000Y-81243000D01*
D11*
X88519000Y-63373000D02*
X89154000Y-62738000D01*
X88519000Y-63373000D02*
X87884000Y-62738000D01*
X88519000Y-62103000D02*
X88519000Y-63373000D01*
D12*
G36*
X92329000Y-68453000D02*
G01*
X92329000Y-67183000D01*
X84709000Y-67183000D01*
X84709000Y-68453000D01*
X92329000Y-68453000D01*
G37*
G36*
X92329000Y-73533000D02*
G01*
X92329000Y-72263000D01*
X84709000Y-72263000D01*
X84709000Y-73533000D01*
X92329000Y-73533000D01*
G37*
D13*
X92329000Y-74168000D02*
X92329000Y-61048000D01*
X91059000Y-75438000D02*
X92329000Y-74168000D01*
X92329000Y-76708000D02*
X91059000Y-75438000D01*
X88519000Y-80518000D02*
X92329000Y-76708000D01*
X84709000Y-76708000D02*
X88519000Y-80518000D01*
X85979000Y-75438000D02*
X84709000Y-76708000D01*
X84709000Y-74168000D02*
X85979000Y-75438000D01*
X84709000Y-61048000D02*
X84709000Y-74168000D01*
X84269000Y-84243000D02*
X84269000Y-81243000D01*
X92769000Y-84243000D02*
X84269000Y-84243000D01*
X92769000Y-81243000D02*
X92769000Y-84243000D01*
X94219000Y-57693000D02*
X94219000Y-60643000D01*
X82819000Y-57693000D02*
X94219000Y-57693000D01*
X82819000Y-60643000D02*
X82819000Y-57693000D01*
X82819000Y-60643000D02*
X79419000Y-60643000D01*
X94219000Y-60643000D02*
X82819000Y-60643000D01*
X97619000Y-60643000D02*
X94219000Y-60643000D01*
X97619000Y-81243000D02*
X97619000Y-60643000D01*
X92769000Y-81243000D02*
X97619000Y-81243000D01*
X84269000Y-81243000D02*
X92769000Y-81243000D01*
X79419000Y-81243000D02*
X84269000Y-81243000D01*
X79419000Y-60643000D02*
X79419000Y-81243000D01*
D10*
X127381000Y-77470000D02*
X127381000Y-78740000D01*
X129921000Y-77470000D02*
X127381000Y-77470000D01*
X129921000Y-78740000D02*
X129921000Y-77470000D01*
X129921000Y-78740000D02*
X129921000Y-81280000D01*
X127381000Y-78740000D02*
X129921000Y-78740000D01*
X127381000Y-81280000D02*
X127381000Y-78740000D01*
X129921000Y-81280000D02*
X127381000Y-81280000D01*
X76327000Y-77470000D02*
X76327000Y-78740000D01*
X78867000Y-77470000D02*
X76327000Y-77470000D01*
X78867000Y-78740000D02*
X78867000Y-77470000D01*
X78867000Y-78740000D02*
X78867000Y-81280000D01*
X76327000Y-78740000D02*
X78867000Y-78740000D01*
X76327000Y-81280000D02*
X76327000Y-78740000D01*
X78867000Y-81280000D02*
X76327000Y-81280000D01*
X105664000Y-81280000D02*
X105664000Y-80010000D01*
X103124000Y-81280000D02*
X105664000Y-81280000D01*
X103124000Y-80010000D02*
X103124000Y-81280000D01*
X103124000Y-80010000D02*
X103124000Y-77470000D01*
X105664000Y-80010000D02*
X103124000Y-80010000D01*
X105664000Y-77470000D02*
X105664000Y-80010000D01*
X103124000Y-77470000D02*
X105664000Y-77470000D01*
X103124000Y-81280000D02*
X103124000Y-80010000D01*
X100584000Y-81280000D02*
X103124000Y-81280000D01*
X100584000Y-80010000D02*
X100584000Y-81280000D01*
X100584000Y-80010000D02*
X100584000Y-77470000D01*
X103124000Y-80010000D02*
X100584000Y-80010000D01*
X103124000Y-77470000D02*
X103124000Y-80010000D01*
X100584000Y-77470000D02*
X103124000Y-77470000D01*
D14*
X106251380Y-69359976D02*
X106965666Y-69359976D01*
X107108523Y-69407595D01*
X107203761Y-69502833D01*
X107251380Y-69645690D01*
X107251380Y-69740928D01*
X107251380Y-68359976D02*
X107251380Y-68931404D01*
X107251380Y-68645690D02*
X106251380Y-68645690D01*
X106394238Y-68740928D01*
X106489476Y-68836166D01*
X106537095Y-68931404D01*
D15*
X98589797Y-67698559D02*
X98015273Y-68100726D01*
X98589797Y-68387988D02*
X97383297Y-68387988D01*
X97383297Y-67928369D01*
X97440750Y-67813464D01*
X97498202Y-67756011D01*
X97613107Y-67698559D01*
X97785464Y-67698559D01*
X97900369Y-67756011D01*
X97957821Y-67813464D01*
X98015273Y-67928369D01*
X98015273Y-68387988D01*
D16*
X103237755Y-72488697D02*
X103237755Y-71275302D01*
X103237755Y-65503697D02*
X103237755Y-64290302D01*
X103844452Y-64897000D02*
X102631058Y-64897000D01*
D14*
X116205000Y-70158428D02*
X116495285Y-70158428D01*
X116640428Y-70231000D01*
X116785571Y-70376142D01*
X116858142Y-70666428D01*
X116858142Y-71174428D01*
X116785571Y-71464714D01*
X116640428Y-71609857D01*
X116495285Y-71682428D01*
X116205000Y-71682428D01*
X116059857Y-71609857D01*
X115914714Y-71464714D01*
X115842142Y-71174428D01*
X115842142Y-70666428D01*
X115914714Y-70376142D01*
X116059857Y-70231000D01*
X116205000Y-70158428D01*
X117511285Y-70158428D02*
X117511285Y-71392142D01*
X117583857Y-71537285D01*
X117656428Y-71609857D01*
X117801571Y-71682428D01*
X118091857Y-71682428D01*
X118237000Y-71609857D01*
X118309571Y-71537285D01*
X118382142Y-71392142D01*
X118382142Y-70158428D01*
X118890142Y-70158428D02*
X119761000Y-70158428D01*
X119325571Y-71682428D02*
X119325571Y-70158428D01*
D17*
X123987076Y-65424352D02*
X124033038Y-65286466D01*
X124033038Y-65056657D01*
X123987076Y-64964733D01*
X123941114Y-64918771D01*
X123849190Y-64872809D01*
X123757266Y-64872809D01*
X123665342Y-64918771D01*
X123619380Y-64964733D01*
X123573419Y-65056657D01*
X123527457Y-65240504D01*
X123481495Y-65332428D01*
X123435533Y-65378390D01*
X123343609Y-65424352D01*
X123251685Y-65424352D01*
X123159761Y-65378390D01*
X123113800Y-65332428D01*
X123067838Y-65240504D01*
X123067838Y-65010695D01*
X123113800Y-64872809D01*
X124033038Y-64459152D02*
X123067838Y-64459152D01*
X124033038Y-63907609D01*
X123067838Y-63907609D01*
X124033038Y-71199828D02*
X123573419Y-71521561D01*
X124033038Y-71751371D02*
X123067838Y-71751371D01*
X123067838Y-71383676D01*
X123113800Y-71291752D01*
X123159761Y-71245790D01*
X123251685Y-71199828D01*
X123389571Y-71199828D01*
X123481495Y-71245790D01*
X123527457Y-71291752D01*
X123573419Y-71383676D01*
X123573419Y-71751371D01*
X124033038Y-70786171D02*
X123067838Y-70786171D01*
X124033038Y-70234628D01*
X123067838Y-70234628D01*
X123067838Y-78124352D02*
X123067838Y-77572809D01*
X124033038Y-77848580D02*
X123067838Y-77848580D01*
X124033038Y-77251076D02*
X123067838Y-77251076D01*
X124033038Y-76699533D01*
X123067838Y-76699533D01*
X109864676Y-62474904D02*
X109910638Y-62337018D01*
X109910638Y-62107209D01*
X109864676Y-62015285D01*
X109818714Y-61969323D01*
X109726790Y-61923361D01*
X109634866Y-61923361D01*
X109542942Y-61969323D01*
X109496980Y-62015285D01*
X109451019Y-62107209D01*
X109405057Y-62291056D01*
X109359095Y-62382980D01*
X109313133Y-62428942D01*
X109221209Y-62474904D01*
X109129285Y-62474904D01*
X109037361Y-62428942D01*
X108991400Y-62382980D01*
X108945438Y-62291056D01*
X108945438Y-62061247D01*
X108991400Y-61923361D01*
X109910638Y-68227399D02*
X109451019Y-68549132D01*
X109910638Y-68778942D02*
X108945438Y-68778942D01*
X108945438Y-68411247D01*
X108991400Y-68319323D01*
X109037361Y-68273361D01*
X109129285Y-68227399D01*
X109267171Y-68227399D01*
X109359095Y-68273361D01*
X109405057Y-68319323D01*
X109451019Y-68411247D01*
X109451019Y-68778942D01*
X108945438Y-75266828D02*
X108945438Y-74715285D01*
X109910638Y-74991056D02*
X108945438Y-74991056D01*
D14*
X87720714Y-71682428D02*
X87720714Y-70158428D01*
X88446428Y-71682428D02*
X88446428Y-70158428D01*
X89317285Y-71682428D01*
X89317285Y-70158428D01*
D17*
X94777076Y-65424352D02*
X94823038Y-65286466D01*
X94823038Y-65056657D01*
X94777076Y-64964733D01*
X94731114Y-64918771D01*
X94639190Y-64872809D01*
X94547266Y-64872809D01*
X94455342Y-64918771D01*
X94409380Y-64964733D01*
X94363419Y-65056657D01*
X94317457Y-65240504D01*
X94271495Y-65332428D01*
X94225533Y-65378390D01*
X94133609Y-65424352D01*
X94041685Y-65424352D01*
X93949761Y-65378390D01*
X93903800Y-65332428D01*
X93857838Y-65240504D01*
X93857838Y-65010695D01*
X93903800Y-64872809D01*
X94823038Y-64459152D02*
X93857838Y-64459152D01*
X94823038Y-63907609D01*
X93857838Y-63907609D01*
X94823038Y-71199828D02*
X94363419Y-71521561D01*
X94823038Y-71751371D02*
X93857838Y-71751371D01*
X93857838Y-71383676D01*
X93903800Y-71291752D01*
X93949761Y-71245790D01*
X94041685Y-71199828D01*
X94179571Y-71199828D01*
X94271495Y-71245790D01*
X94317457Y-71291752D01*
X94363419Y-71383676D01*
X94363419Y-71751371D01*
X94823038Y-70786171D02*
X93857838Y-70786171D01*
X94823038Y-70234628D01*
X93857838Y-70234628D01*
X93857838Y-78124352D02*
X93857838Y-77572809D01*
X94823038Y-77848580D02*
X93857838Y-77848580D01*
X94823038Y-77251076D02*
X93857838Y-77251076D01*
X94823038Y-76699533D01*
X93857838Y-76699533D01*
X80654676Y-62474904D02*
X80700638Y-62337018D01*
X80700638Y-62107209D01*
X80654676Y-62015285D01*
X80608714Y-61969323D01*
X80516790Y-61923361D01*
X80424866Y-61923361D01*
X80332942Y-61969323D01*
X80286980Y-62015285D01*
X80241019Y-62107209D01*
X80195057Y-62291056D01*
X80149095Y-62382980D01*
X80103133Y-62428942D01*
X80011209Y-62474904D01*
X79919285Y-62474904D01*
X79827361Y-62428942D01*
X79781400Y-62382980D01*
X79735438Y-62291056D01*
X79735438Y-62061247D01*
X79781400Y-61923361D01*
X80700638Y-68227399D02*
X80241019Y-68549132D01*
X80700638Y-68778942D02*
X79735438Y-68778942D01*
X79735438Y-68411247D01*
X79781400Y-68319323D01*
X79827361Y-68273361D01*
X79919285Y-68227399D01*
X80057171Y-68227399D01*
X80149095Y-68273361D01*
X80195057Y-68319323D01*
X80241019Y-68411247D01*
X80241019Y-68778942D01*
X79735438Y-75266828D02*
X79735438Y-74715285D01*
X80700638Y-74991056D02*
X79735438Y-74991056D01*
D12*
X127901000Y-77694285D02*
X128043857Y-77694285D01*
X128115285Y-77730000D01*
X128186714Y-77801428D01*
X128222428Y-77944285D01*
X128222428Y-78194285D01*
X128186714Y-78337142D01*
X128115285Y-78408571D01*
X128043857Y-78444285D01*
X127901000Y-78444285D01*
X127829571Y-78408571D01*
X127758142Y-78337142D01*
X127722428Y-78194285D01*
X127722428Y-77944285D01*
X127758142Y-77801428D01*
X127829571Y-77730000D01*
X127901000Y-77694285D01*
X128543857Y-77694285D02*
X128543857Y-78301428D01*
X128579571Y-78372857D01*
X128615285Y-78408571D01*
X128686714Y-78444285D01*
X128829571Y-78444285D01*
X128901000Y-78408571D01*
X128936714Y-78372857D01*
X128972428Y-78301428D01*
X128972428Y-77694285D01*
X129222428Y-77694285D02*
X129651000Y-77694285D01*
X129436714Y-78444285D02*
X129436714Y-77694285D01*
X77204142Y-78444285D02*
X77204142Y-77694285D01*
X77561285Y-78444285D02*
X77561285Y-77694285D01*
X77989857Y-78444285D01*
X77989857Y-77694285D01*
X103822571Y-80270000D02*
X103751142Y-80234285D01*
X103644000Y-80234285D01*
X103536857Y-80270000D01*
X103465428Y-80341428D01*
X103429714Y-80412857D01*
X103394000Y-80555714D01*
X103394000Y-80662857D01*
X103429714Y-80805714D01*
X103465428Y-80877142D01*
X103536857Y-80948571D01*
X103644000Y-80984285D01*
X103715428Y-80984285D01*
X103822571Y-80948571D01*
X103858285Y-80912857D01*
X103858285Y-80662857D01*
X103715428Y-80662857D01*
X104179714Y-80984285D02*
X104179714Y-80234285D01*
X104608285Y-80984285D01*
X104608285Y-80234285D01*
X104965428Y-80984285D02*
X104965428Y-80234285D01*
X105144000Y-80234285D01*
X105251142Y-80270000D01*
X105322571Y-80341428D01*
X105358285Y-80412857D01*
X105394000Y-80555714D01*
X105394000Y-80662857D01*
X105358285Y-80805714D01*
X105322571Y-80877142D01*
X105251142Y-80948571D01*
X105144000Y-80984285D01*
X104965428Y-80984285D01*
X101389714Y-80984285D02*
X101532571Y-80984285D01*
X101604000Y-80948571D01*
X101639714Y-80912857D01*
X101711142Y-80805714D01*
X101746857Y-80662857D01*
X101746857Y-80377142D01*
X101711142Y-80305714D01*
X101675428Y-80270000D01*
X101604000Y-80234285D01*
X101461142Y-80234285D01*
X101389714Y-80270000D01*
X101354000Y-80305714D01*
X101318285Y-80377142D01*
X101318285Y-80555714D01*
X101354000Y-80627142D01*
X101389714Y-80662857D01*
X101461142Y-80698571D01*
X101604000Y-80698571D01*
X101675428Y-80662857D01*
X101711142Y-80627142D01*
X101746857Y-80555714D01*
X101961142Y-80234285D02*
X102211142Y-80984285D01*
X102461142Y-80234285D01*
M02*
