G04 #@! TF.GenerationSoftware,KiCad,Pcbnew,(5.1.9-0-10_14)*
G04 #@! TF.CreationDate,2021-07-10T16:26:02+02:00*
G04 #@! TF.ProjectId,jack-power,6a61636b-2d70-46f7-9765-722e6b696361,rev?*
G04 #@! TF.SameCoordinates,Original*
G04 #@! TF.FileFunction,Copper,L2,Bot*
G04 #@! TF.FilePolarity,Positive*
%FSLAX46Y46*%
G04 Gerber Fmt 4.6, Leading zero omitted, Abs format (unit mm)*
G04 Created by KiCad (PCBNEW (5.1.9-0-10_14)) date 2021-07-10 16:26:02*
%MOMM*%
%LPD*%
G01*
G04 APERTURE LIST*
G04 #@! TA.AperFunction,ComponentPad*
%ADD10R,3.810000X3.810000*%
G04 #@! TD*
G04 #@! TA.AperFunction,ComponentPad*
%ADD11O,3.810000X3.810000*%
G04 #@! TD*
G04 #@! TA.AperFunction,ComponentPad*
%ADD12O,2.810000X3.810000*%
G04 #@! TD*
G04 #@! TA.AperFunction,ComponentPad*
%ADD13O,1.930400X2.400000*%
G04 #@! TD*
G04 #@! TA.AperFunction,ComponentPad*
%ADD14O,2.032000X2.032000*%
G04 #@! TD*
G04 #@! TA.AperFunction,Conductor*
%ADD15C,0.254000*%
G04 #@! TD*
G04 #@! TA.AperFunction,Conductor*
%ADD16C,0.100000*%
G04 #@! TD*
G04 APERTURE END LIST*
D10*
X103124000Y-71882000D03*
D11*
X103124000Y-64897000D03*
D12*
X98425000Y-68072000D03*
D13*
X125844000Y-77343000D03*
X109614000Y-77343000D03*
X125844000Y-64643000D03*
X109614000Y-64643000D03*
X125844000Y-70993000D03*
X109614000Y-70993000D03*
X96634000Y-77343000D03*
X80404000Y-77343000D03*
X96634000Y-64643000D03*
X80530200Y-64734800D03*
X96634000Y-70993000D03*
X80404000Y-70993000D03*
D14*
X128651000Y-80010000D03*
X77597000Y-80010000D03*
X104394000Y-78740000D03*
X101854000Y-78740000D03*
D15*
X125745537Y-61256141D02*
X125882644Y-61297536D01*
X126009095Y-61364771D01*
X126120086Y-61455293D01*
X126211378Y-61565648D01*
X126279497Y-61691630D01*
X126321847Y-61828442D01*
X126340435Y-62005298D01*
X126357081Y-62887514D01*
X126323377Y-62873229D01*
X126218973Y-62852554D01*
X125971000Y-62972356D01*
X125971000Y-64516000D01*
X125991000Y-64516000D01*
X125991000Y-64770000D01*
X125971000Y-64770000D01*
X125971000Y-66313644D01*
X126218973Y-66433446D01*
X126323377Y-66412771D01*
X126422801Y-66370632D01*
X126477742Y-69282495D01*
X126459332Y-69272655D01*
X126157693Y-69181154D01*
X125844000Y-69150258D01*
X125530306Y-69181154D01*
X125228667Y-69272655D01*
X124950675Y-69421245D01*
X124707013Y-69621213D01*
X124507045Y-69864876D01*
X124358455Y-70142868D01*
X124266954Y-70444507D01*
X124243800Y-70679595D01*
X124243800Y-71306406D01*
X124266954Y-71541494D01*
X124358455Y-71843133D01*
X124507045Y-72121125D01*
X124707013Y-72364787D01*
X124950676Y-72564755D01*
X125228668Y-72713345D01*
X125530307Y-72804846D01*
X125844000Y-72835742D01*
X126157694Y-72804846D01*
X126459333Y-72713345D01*
X126541645Y-72669348D01*
X126593512Y-75418317D01*
X126590937Y-75451071D01*
X126598547Y-75515328D01*
X126606107Y-75579630D01*
X126606194Y-75579899D01*
X126606227Y-75580177D01*
X126626118Y-75641379D01*
X126646187Y-75703306D01*
X126646325Y-75703554D01*
X126646412Y-75703820D01*
X126661467Y-75730699D01*
X126459332Y-75622655D01*
X126157693Y-75531154D01*
X125844000Y-75500258D01*
X125530306Y-75531154D01*
X125228667Y-75622655D01*
X124950675Y-75771245D01*
X124707013Y-75971213D01*
X124507045Y-76214876D01*
X124358455Y-76492868D01*
X124266954Y-76794507D01*
X124243800Y-77029595D01*
X124243800Y-77656406D01*
X124266954Y-77891494D01*
X124358455Y-78193133D01*
X124507045Y-78471125D01*
X124707013Y-78714787D01*
X124950676Y-78914755D01*
X125228668Y-79063345D01*
X125530307Y-79154846D01*
X125844000Y-79185742D01*
X126157694Y-79154846D01*
X126459333Y-79063345D01*
X126737325Y-78914755D01*
X126980987Y-78714787D01*
X127140763Y-78520099D01*
X127152600Y-79313186D01*
X127063447Y-79528421D01*
X127000000Y-79847391D01*
X127000000Y-80172609D01*
X127063447Y-80491579D01*
X127174178Y-80758907D01*
X127177791Y-81001000D01*
X79273902Y-81001000D01*
X79285146Y-78729668D01*
X79510676Y-78914755D01*
X79788668Y-79063345D01*
X80090307Y-79154846D01*
X80404000Y-79185742D01*
X80717694Y-79154846D01*
X81019333Y-79063345D01*
X81297325Y-78914755D01*
X81540987Y-78714787D01*
X81740955Y-78471125D01*
X81889545Y-78193133D01*
X81981046Y-77891493D01*
X82004200Y-77656405D01*
X82004200Y-77029595D01*
X95033800Y-77029595D01*
X95033800Y-77656406D01*
X95056954Y-77891494D01*
X95148455Y-78193133D01*
X95297045Y-78471125D01*
X95497013Y-78714787D01*
X95740676Y-78914755D01*
X96018668Y-79063345D01*
X96320307Y-79154846D01*
X96634000Y-79185742D01*
X96947694Y-79154846D01*
X97249333Y-79063345D01*
X97527325Y-78914755D01*
X97770987Y-78714787D01*
X97883744Y-78577391D01*
X100203000Y-78577391D01*
X100203000Y-78902609D01*
X100266447Y-79221579D01*
X100390903Y-79522042D01*
X100571585Y-79792451D01*
X100801549Y-80022415D01*
X101071958Y-80203097D01*
X101372421Y-80327553D01*
X101691391Y-80391000D01*
X102016609Y-80391000D01*
X102335579Y-80327553D01*
X102636042Y-80203097D01*
X102906451Y-80022415D01*
X103132831Y-79796035D01*
X103183358Y-79862569D01*
X103425623Y-80077184D01*
X103705102Y-80240411D01*
X104011055Y-80345978D01*
X104267000Y-80227362D01*
X104267000Y-78867000D01*
X104521000Y-78867000D01*
X104521000Y-80227362D01*
X104776945Y-80345978D01*
X105082898Y-80240411D01*
X105362377Y-80077184D01*
X105604642Y-79862569D01*
X105800382Y-79604815D01*
X105942076Y-79313826D01*
X105999975Y-79122944D01*
X105880836Y-78867000D01*
X104521000Y-78867000D01*
X104267000Y-78867000D01*
X104247000Y-78867000D01*
X104247000Y-78613000D01*
X104267000Y-78613000D01*
X104267000Y-77252638D01*
X104521000Y-77252638D01*
X104521000Y-78613000D01*
X105880836Y-78613000D01*
X105999975Y-78357056D01*
X105942076Y-78166174D01*
X105800382Y-77875185D01*
X105604642Y-77617431D01*
X105362377Y-77402816D01*
X105082898Y-77239589D01*
X104776945Y-77134022D01*
X104521000Y-77252638D01*
X104267000Y-77252638D01*
X104011055Y-77134022D01*
X103705102Y-77239589D01*
X103425623Y-77402816D01*
X103183358Y-77617431D01*
X103132831Y-77683965D01*
X102906451Y-77457585D01*
X102636042Y-77276903D01*
X102335579Y-77152447D01*
X102016609Y-77089000D01*
X101691391Y-77089000D01*
X101372421Y-77152447D01*
X101071958Y-77276903D01*
X100801549Y-77457585D01*
X100571585Y-77687549D01*
X100390903Y-77957958D01*
X100266447Y-78258421D01*
X100203000Y-78577391D01*
X97883744Y-78577391D01*
X97970955Y-78471125D01*
X98119545Y-78193133D01*
X98211046Y-77891493D01*
X98234200Y-77656405D01*
X98234200Y-77029595D01*
X108013800Y-77029595D01*
X108013800Y-77656406D01*
X108036954Y-77891494D01*
X108128455Y-78193133D01*
X108277045Y-78471125D01*
X108477013Y-78714787D01*
X108720676Y-78914755D01*
X108998668Y-79063345D01*
X109300307Y-79154846D01*
X109614000Y-79185742D01*
X109927694Y-79154846D01*
X110229333Y-79063345D01*
X110507325Y-78914755D01*
X110750987Y-78714787D01*
X110950955Y-78471125D01*
X111099545Y-78193133D01*
X111191046Y-77891493D01*
X111214200Y-77656405D01*
X111214200Y-77029594D01*
X111191046Y-76794506D01*
X111099545Y-76492867D01*
X110950955Y-76214875D01*
X110750987Y-75971213D01*
X110507324Y-75771245D01*
X110229332Y-75622655D01*
X109927693Y-75531154D01*
X109614000Y-75500258D01*
X109300306Y-75531154D01*
X108998667Y-75622655D01*
X108720675Y-75771245D01*
X108477013Y-75971213D01*
X108277045Y-76214876D01*
X108128455Y-76492868D01*
X108036954Y-76794507D01*
X108013800Y-77029595D01*
X98234200Y-77029595D01*
X98234200Y-77029594D01*
X98211046Y-76794506D01*
X98119545Y-76492867D01*
X97970955Y-76214875D01*
X97770987Y-75971213D01*
X97527324Y-75771245D01*
X97249332Y-75622655D01*
X96947693Y-75531154D01*
X96634000Y-75500258D01*
X96320306Y-75531154D01*
X96018667Y-75622655D01*
X95740675Y-75771245D01*
X95497013Y-75971213D01*
X95297045Y-76214876D01*
X95148455Y-76492868D01*
X95056954Y-76794507D01*
X95033800Y-77029595D01*
X82004200Y-77029595D01*
X82004200Y-77029594D01*
X81981046Y-76794506D01*
X81889545Y-76492867D01*
X81740955Y-76214875D01*
X81540987Y-75971213D01*
X81297324Y-75771245D01*
X81019332Y-75622655D01*
X80717693Y-75531154D01*
X80404000Y-75500258D01*
X80090306Y-75531154D01*
X79788667Y-75622655D01*
X79747960Y-75644414D01*
X79748325Y-75643248D01*
X79766686Y-75589373D01*
X79767760Y-75581293D01*
X79770200Y-75573513D01*
X79776314Y-75516912D01*
X79783810Y-75460498D01*
X79781199Y-75419912D01*
X79796603Y-73787000D01*
X100580928Y-73787000D01*
X100593188Y-73911482D01*
X100629498Y-74031180D01*
X100688463Y-74141494D01*
X100767815Y-74238185D01*
X100864506Y-74317537D01*
X100974820Y-74376502D01*
X101094518Y-74412812D01*
X101219000Y-74425072D01*
X102838250Y-74422000D01*
X102997000Y-74263250D01*
X102997000Y-72009000D01*
X103251000Y-72009000D01*
X103251000Y-74263250D01*
X103409750Y-74422000D01*
X105029000Y-74425072D01*
X105153482Y-74412812D01*
X105273180Y-74376502D01*
X105383494Y-74317537D01*
X105480185Y-74238185D01*
X105559537Y-74141494D01*
X105618502Y-74031180D01*
X105654812Y-73911482D01*
X105667072Y-73787000D01*
X105664000Y-72167750D01*
X105505250Y-72009000D01*
X103251000Y-72009000D01*
X102997000Y-72009000D01*
X100742750Y-72009000D01*
X100584000Y-72167750D01*
X100580928Y-73787000D01*
X79796603Y-73787000D01*
X79806681Y-72718809D01*
X80090307Y-72804846D01*
X80404000Y-72835742D01*
X80717694Y-72804846D01*
X81019333Y-72713345D01*
X81297325Y-72564755D01*
X81540987Y-72364787D01*
X81740955Y-72121125D01*
X81889545Y-71843133D01*
X81981046Y-71541493D01*
X82004200Y-71306405D01*
X82004200Y-70679595D01*
X95033800Y-70679595D01*
X95033800Y-71306406D01*
X95056954Y-71541494D01*
X95148455Y-71843133D01*
X95297045Y-72121125D01*
X95497013Y-72364787D01*
X95740676Y-72564755D01*
X96018668Y-72713345D01*
X96320307Y-72804846D01*
X96634000Y-72835742D01*
X96947694Y-72804846D01*
X97249333Y-72713345D01*
X97527325Y-72564755D01*
X97770987Y-72364787D01*
X97970955Y-72121125D01*
X98119545Y-71843133D01*
X98211046Y-71541493D01*
X98234200Y-71306405D01*
X98234200Y-70679594D01*
X98226590Y-70602328D01*
X98425000Y-70621870D01*
X98824909Y-70582482D01*
X99209450Y-70465833D01*
X99563847Y-70276405D01*
X99874477Y-70021477D01*
X99910978Y-69977000D01*
X100580928Y-69977000D01*
X100584000Y-71596250D01*
X100742750Y-71755000D01*
X102997000Y-71755000D01*
X102997000Y-69500750D01*
X103251000Y-69500750D01*
X103251000Y-71755000D01*
X105505250Y-71755000D01*
X105664000Y-71596250D01*
X105665739Y-70679595D01*
X108013800Y-70679595D01*
X108013800Y-71306406D01*
X108036954Y-71541494D01*
X108128455Y-71843133D01*
X108277045Y-72121125D01*
X108477013Y-72364787D01*
X108720676Y-72564755D01*
X108998668Y-72713345D01*
X109300307Y-72804846D01*
X109614000Y-72835742D01*
X109927694Y-72804846D01*
X110229333Y-72713345D01*
X110507325Y-72564755D01*
X110750987Y-72364787D01*
X110950955Y-72121125D01*
X111099545Y-71843133D01*
X111191046Y-71541493D01*
X111214200Y-71306405D01*
X111214200Y-70679594D01*
X111191046Y-70444506D01*
X111099545Y-70142867D01*
X110950955Y-69864875D01*
X110750987Y-69621213D01*
X110507324Y-69421245D01*
X110229332Y-69272655D01*
X109927693Y-69181154D01*
X109614000Y-69150258D01*
X109300306Y-69181154D01*
X108998667Y-69272655D01*
X108720675Y-69421245D01*
X108477013Y-69621213D01*
X108277045Y-69864876D01*
X108128455Y-70142868D01*
X108036954Y-70444507D01*
X108013800Y-70679595D01*
X105665739Y-70679595D01*
X105667072Y-69977000D01*
X105654812Y-69852518D01*
X105618502Y-69732820D01*
X105559537Y-69622506D01*
X105480185Y-69525815D01*
X105383494Y-69446463D01*
X105273180Y-69387498D01*
X105153482Y-69351188D01*
X105029000Y-69338928D01*
X103409750Y-69342000D01*
X103251000Y-69500750D01*
X102997000Y-69500750D01*
X102838250Y-69342000D01*
X101219000Y-69338928D01*
X101094518Y-69351188D01*
X100974820Y-69387498D01*
X100864506Y-69446463D01*
X100767815Y-69525815D01*
X100688463Y-69622506D01*
X100629498Y-69732820D01*
X100593188Y-69852518D01*
X100580928Y-69977000D01*
X99910978Y-69977000D01*
X100129405Y-69710847D01*
X100318833Y-69356451D01*
X100435482Y-68971910D01*
X100465000Y-68672211D01*
X100465000Y-67471790D01*
X100435482Y-67172091D01*
X100318833Y-66787549D01*
X100129405Y-66433153D01*
X99874477Y-66122523D01*
X99563847Y-65867595D01*
X99209451Y-65678167D01*
X98824910Y-65561518D01*
X98425000Y-65522130D01*
X98086165Y-65555503D01*
X98176609Y-65331996D01*
X98235578Y-65022321D01*
X98079718Y-64770000D01*
X96761000Y-64770000D01*
X96761000Y-66313644D01*
X96802300Y-66333597D01*
X96720596Y-66433153D01*
X96531167Y-66787549D01*
X96414518Y-67172090D01*
X96385000Y-67471789D01*
X96385000Y-68672210D01*
X96414518Y-68971909D01*
X96473417Y-69166074D01*
X96320306Y-69181154D01*
X96018667Y-69272655D01*
X95740675Y-69421245D01*
X95497013Y-69621213D01*
X95297045Y-69864876D01*
X95148455Y-70142868D01*
X95056954Y-70444507D01*
X95033800Y-70679595D01*
X82004200Y-70679595D01*
X82004200Y-70679594D01*
X81981046Y-70444506D01*
X81889545Y-70142867D01*
X81740955Y-69864875D01*
X81540987Y-69621213D01*
X81297324Y-69421245D01*
X81019332Y-69272655D01*
X80717693Y-69181154D01*
X80404000Y-69150258D01*
X80090306Y-69181154D01*
X79839337Y-69257284D01*
X79866045Y-66426256D01*
X80050823Y-66504571D01*
X80155227Y-66525246D01*
X80403200Y-66405444D01*
X80403200Y-64861800D01*
X80657200Y-64861800D01*
X80657200Y-66405444D01*
X80905173Y-66525246D01*
X81009577Y-66504571D01*
X81299824Y-66381555D01*
X81560495Y-66204278D01*
X81781572Y-65979553D01*
X81954559Y-65716017D01*
X82072809Y-65423796D01*
X82131778Y-65114121D01*
X82075073Y-65022321D01*
X95032422Y-65022321D01*
X95091391Y-65331996D01*
X95209641Y-65624217D01*
X95382628Y-65887753D01*
X95603705Y-66112478D01*
X95864376Y-66289755D01*
X96154623Y-66412771D01*
X96259027Y-66433446D01*
X96507000Y-66313644D01*
X96507000Y-64770000D01*
X95188282Y-64770000D01*
X95032422Y-65022321D01*
X82075073Y-65022321D01*
X81975918Y-64861800D01*
X80657200Y-64861800D01*
X80403200Y-64861800D01*
X80383200Y-64861800D01*
X80383200Y-64646832D01*
X100584000Y-64646832D01*
X100584000Y-65147168D01*
X100681611Y-65637891D01*
X100873081Y-66100141D01*
X101151053Y-66516156D01*
X101504844Y-66869947D01*
X101920859Y-67147919D01*
X102383109Y-67339389D01*
X102873832Y-67437000D01*
X103374168Y-67437000D01*
X103864891Y-67339389D01*
X104327141Y-67147919D01*
X104743156Y-66869947D01*
X105096947Y-66516156D01*
X105374919Y-66100141D01*
X105566389Y-65637891D01*
X105664000Y-65147168D01*
X105664000Y-65022321D01*
X108012422Y-65022321D01*
X108071391Y-65331996D01*
X108189641Y-65624217D01*
X108362628Y-65887753D01*
X108583705Y-66112478D01*
X108844376Y-66289755D01*
X109134623Y-66412771D01*
X109239027Y-66433446D01*
X109487000Y-66313644D01*
X109487000Y-64770000D01*
X109741000Y-64770000D01*
X109741000Y-66313644D01*
X109988973Y-66433446D01*
X110093377Y-66412771D01*
X110383624Y-66289755D01*
X110644295Y-66112478D01*
X110865372Y-65887753D01*
X111038359Y-65624217D01*
X111156609Y-65331996D01*
X111215578Y-65022321D01*
X124242422Y-65022321D01*
X124301391Y-65331996D01*
X124419641Y-65624217D01*
X124592628Y-65887753D01*
X124813705Y-66112478D01*
X125074376Y-66289755D01*
X125364623Y-66412771D01*
X125469027Y-66433446D01*
X125717000Y-66313644D01*
X125717000Y-64770000D01*
X124398282Y-64770000D01*
X124242422Y-65022321D01*
X111215578Y-65022321D01*
X111059718Y-64770000D01*
X109741000Y-64770000D01*
X109487000Y-64770000D01*
X108168282Y-64770000D01*
X108012422Y-65022321D01*
X105664000Y-65022321D01*
X105664000Y-64646832D01*
X105587787Y-64263679D01*
X108012422Y-64263679D01*
X108168282Y-64516000D01*
X109487000Y-64516000D01*
X109487000Y-62972356D01*
X109741000Y-62972356D01*
X109741000Y-64516000D01*
X111059718Y-64516000D01*
X111215578Y-64263679D01*
X124242422Y-64263679D01*
X124398282Y-64516000D01*
X125717000Y-64516000D01*
X125717000Y-62972356D01*
X125469027Y-62852554D01*
X125364623Y-62873229D01*
X125074376Y-62996245D01*
X124813705Y-63173522D01*
X124592628Y-63398247D01*
X124419641Y-63661783D01*
X124301391Y-63954004D01*
X124242422Y-64263679D01*
X111215578Y-64263679D01*
X111156609Y-63954004D01*
X111038359Y-63661783D01*
X110865372Y-63398247D01*
X110644295Y-63173522D01*
X110383624Y-62996245D01*
X110093377Y-62873229D01*
X109988973Y-62852554D01*
X109741000Y-62972356D01*
X109487000Y-62972356D01*
X109239027Y-62852554D01*
X109134623Y-62873229D01*
X108844376Y-62996245D01*
X108583705Y-63173522D01*
X108362628Y-63398247D01*
X108189641Y-63661783D01*
X108071391Y-63954004D01*
X108012422Y-64263679D01*
X105587787Y-64263679D01*
X105566389Y-64156109D01*
X105374919Y-63693859D01*
X105096947Y-63277844D01*
X104743156Y-62924053D01*
X104327141Y-62646081D01*
X103864891Y-62454611D01*
X103374168Y-62357000D01*
X102873832Y-62357000D01*
X102383109Y-62454611D01*
X101920859Y-62646081D01*
X101504844Y-62924053D01*
X101151053Y-63277844D01*
X100873081Y-63693859D01*
X100681611Y-64156109D01*
X100584000Y-64646832D01*
X80383200Y-64646832D01*
X80383200Y-64607800D01*
X80403200Y-64607800D01*
X80403200Y-63064156D01*
X80657200Y-63064156D01*
X80657200Y-64607800D01*
X81975918Y-64607800D01*
X82131778Y-64355479D01*
X82114298Y-64263679D01*
X95032422Y-64263679D01*
X95188282Y-64516000D01*
X96507000Y-64516000D01*
X96507000Y-62972356D01*
X96761000Y-62972356D01*
X96761000Y-64516000D01*
X98079718Y-64516000D01*
X98235578Y-64263679D01*
X98176609Y-63954004D01*
X98058359Y-63661783D01*
X97885372Y-63398247D01*
X97664295Y-63173522D01*
X97403624Y-62996245D01*
X97113377Y-62873229D01*
X97008973Y-62852554D01*
X96761000Y-62972356D01*
X96507000Y-62972356D01*
X96259027Y-62852554D01*
X96154623Y-62873229D01*
X95864376Y-62996245D01*
X95603705Y-63173522D01*
X95382628Y-63398247D01*
X95209641Y-63661783D01*
X95091391Y-63954004D01*
X95032422Y-64263679D01*
X82114298Y-64263679D01*
X82072809Y-64045804D01*
X81954559Y-63753583D01*
X81781572Y-63490047D01*
X81560495Y-63265322D01*
X81299824Y-63088045D01*
X81009577Y-62965029D01*
X80905173Y-62944354D01*
X80657200Y-63064156D01*
X80403200Y-63064156D01*
X80155227Y-62944354D01*
X80050823Y-62965029D01*
X79898088Y-63029763D01*
X79907695Y-62011390D01*
X79925141Y-61833463D01*
X79966536Y-61696356D01*
X80033771Y-61569905D01*
X80124293Y-61458914D01*
X80234648Y-61367622D01*
X80360630Y-61299503D01*
X80497442Y-61257153D01*
X80670155Y-61239000D01*
X125570720Y-61239000D01*
X125745537Y-61256141D01*
G04 #@! TA.AperFunction,Conductor*
D16*
G36*
X125745537Y-61256141D02*
G01*
X125882644Y-61297536D01*
X126009095Y-61364771D01*
X126120086Y-61455293D01*
X126211378Y-61565648D01*
X126279497Y-61691630D01*
X126321847Y-61828442D01*
X126340435Y-62005298D01*
X126357081Y-62887514D01*
X126323377Y-62873229D01*
X126218973Y-62852554D01*
X125971000Y-62972356D01*
X125971000Y-64516000D01*
X125991000Y-64516000D01*
X125991000Y-64770000D01*
X125971000Y-64770000D01*
X125971000Y-66313644D01*
X126218973Y-66433446D01*
X126323377Y-66412771D01*
X126422801Y-66370632D01*
X126477742Y-69282495D01*
X126459332Y-69272655D01*
X126157693Y-69181154D01*
X125844000Y-69150258D01*
X125530306Y-69181154D01*
X125228667Y-69272655D01*
X124950675Y-69421245D01*
X124707013Y-69621213D01*
X124507045Y-69864876D01*
X124358455Y-70142868D01*
X124266954Y-70444507D01*
X124243800Y-70679595D01*
X124243800Y-71306406D01*
X124266954Y-71541494D01*
X124358455Y-71843133D01*
X124507045Y-72121125D01*
X124707013Y-72364787D01*
X124950676Y-72564755D01*
X125228668Y-72713345D01*
X125530307Y-72804846D01*
X125844000Y-72835742D01*
X126157694Y-72804846D01*
X126459333Y-72713345D01*
X126541645Y-72669348D01*
X126593512Y-75418317D01*
X126590937Y-75451071D01*
X126598547Y-75515328D01*
X126606107Y-75579630D01*
X126606194Y-75579899D01*
X126606227Y-75580177D01*
X126626118Y-75641379D01*
X126646187Y-75703306D01*
X126646325Y-75703554D01*
X126646412Y-75703820D01*
X126661467Y-75730699D01*
X126459332Y-75622655D01*
X126157693Y-75531154D01*
X125844000Y-75500258D01*
X125530306Y-75531154D01*
X125228667Y-75622655D01*
X124950675Y-75771245D01*
X124707013Y-75971213D01*
X124507045Y-76214876D01*
X124358455Y-76492868D01*
X124266954Y-76794507D01*
X124243800Y-77029595D01*
X124243800Y-77656406D01*
X124266954Y-77891494D01*
X124358455Y-78193133D01*
X124507045Y-78471125D01*
X124707013Y-78714787D01*
X124950676Y-78914755D01*
X125228668Y-79063345D01*
X125530307Y-79154846D01*
X125844000Y-79185742D01*
X126157694Y-79154846D01*
X126459333Y-79063345D01*
X126737325Y-78914755D01*
X126980987Y-78714787D01*
X127140763Y-78520099D01*
X127152600Y-79313186D01*
X127063447Y-79528421D01*
X127000000Y-79847391D01*
X127000000Y-80172609D01*
X127063447Y-80491579D01*
X127174178Y-80758907D01*
X127177791Y-81001000D01*
X79273902Y-81001000D01*
X79285146Y-78729668D01*
X79510676Y-78914755D01*
X79788668Y-79063345D01*
X80090307Y-79154846D01*
X80404000Y-79185742D01*
X80717694Y-79154846D01*
X81019333Y-79063345D01*
X81297325Y-78914755D01*
X81540987Y-78714787D01*
X81740955Y-78471125D01*
X81889545Y-78193133D01*
X81981046Y-77891493D01*
X82004200Y-77656405D01*
X82004200Y-77029595D01*
X95033800Y-77029595D01*
X95033800Y-77656406D01*
X95056954Y-77891494D01*
X95148455Y-78193133D01*
X95297045Y-78471125D01*
X95497013Y-78714787D01*
X95740676Y-78914755D01*
X96018668Y-79063345D01*
X96320307Y-79154846D01*
X96634000Y-79185742D01*
X96947694Y-79154846D01*
X97249333Y-79063345D01*
X97527325Y-78914755D01*
X97770987Y-78714787D01*
X97883744Y-78577391D01*
X100203000Y-78577391D01*
X100203000Y-78902609D01*
X100266447Y-79221579D01*
X100390903Y-79522042D01*
X100571585Y-79792451D01*
X100801549Y-80022415D01*
X101071958Y-80203097D01*
X101372421Y-80327553D01*
X101691391Y-80391000D01*
X102016609Y-80391000D01*
X102335579Y-80327553D01*
X102636042Y-80203097D01*
X102906451Y-80022415D01*
X103132831Y-79796035D01*
X103183358Y-79862569D01*
X103425623Y-80077184D01*
X103705102Y-80240411D01*
X104011055Y-80345978D01*
X104267000Y-80227362D01*
X104267000Y-78867000D01*
X104521000Y-78867000D01*
X104521000Y-80227362D01*
X104776945Y-80345978D01*
X105082898Y-80240411D01*
X105362377Y-80077184D01*
X105604642Y-79862569D01*
X105800382Y-79604815D01*
X105942076Y-79313826D01*
X105999975Y-79122944D01*
X105880836Y-78867000D01*
X104521000Y-78867000D01*
X104267000Y-78867000D01*
X104247000Y-78867000D01*
X104247000Y-78613000D01*
X104267000Y-78613000D01*
X104267000Y-77252638D01*
X104521000Y-77252638D01*
X104521000Y-78613000D01*
X105880836Y-78613000D01*
X105999975Y-78357056D01*
X105942076Y-78166174D01*
X105800382Y-77875185D01*
X105604642Y-77617431D01*
X105362377Y-77402816D01*
X105082898Y-77239589D01*
X104776945Y-77134022D01*
X104521000Y-77252638D01*
X104267000Y-77252638D01*
X104011055Y-77134022D01*
X103705102Y-77239589D01*
X103425623Y-77402816D01*
X103183358Y-77617431D01*
X103132831Y-77683965D01*
X102906451Y-77457585D01*
X102636042Y-77276903D01*
X102335579Y-77152447D01*
X102016609Y-77089000D01*
X101691391Y-77089000D01*
X101372421Y-77152447D01*
X101071958Y-77276903D01*
X100801549Y-77457585D01*
X100571585Y-77687549D01*
X100390903Y-77957958D01*
X100266447Y-78258421D01*
X100203000Y-78577391D01*
X97883744Y-78577391D01*
X97970955Y-78471125D01*
X98119545Y-78193133D01*
X98211046Y-77891493D01*
X98234200Y-77656405D01*
X98234200Y-77029595D01*
X108013800Y-77029595D01*
X108013800Y-77656406D01*
X108036954Y-77891494D01*
X108128455Y-78193133D01*
X108277045Y-78471125D01*
X108477013Y-78714787D01*
X108720676Y-78914755D01*
X108998668Y-79063345D01*
X109300307Y-79154846D01*
X109614000Y-79185742D01*
X109927694Y-79154846D01*
X110229333Y-79063345D01*
X110507325Y-78914755D01*
X110750987Y-78714787D01*
X110950955Y-78471125D01*
X111099545Y-78193133D01*
X111191046Y-77891493D01*
X111214200Y-77656405D01*
X111214200Y-77029594D01*
X111191046Y-76794506D01*
X111099545Y-76492867D01*
X110950955Y-76214875D01*
X110750987Y-75971213D01*
X110507324Y-75771245D01*
X110229332Y-75622655D01*
X109927693Y-75531154D01*
X109614000Y-75500258D01*
X109300306Y-75531154D01*
X108998667Y-75622655D01*
X108720675Y-75771245D01*
X108477013Y-75971213D01*
X108277045Y-76214876D01*
X108128455Y-76492868D01*
X108036954Y-76794507D01*
X108013800Y-77029595D01*
X98234200Y-77029595D01*
X98234200Y-77029594D01*
X98211046Y-76794506D01*
X98119545Y-76492867D01*
X97970955Y-76214875D01*
X97770987Y-75971213D01*
X97527324Y-75771245D01*
X97249332Y-75622655D01*
X96947693Y-75531154D01*
X96634000Y-75500258D01*
X96320306Y-75531154D01*
X96018667Y-75622655D01*
X95740675Y-75771245D01*
X95497013Y-75971213D01*
X95297045Y-76214876D01*
X95148455Y-76492868D01*
X95056954Y-76794507D01*
X95033800Y-77029595D01*
X82004200Y-77029595D01*
X82004200Y-77029594D01*
X81981046Y-76794506D01*
X81889545Y-76492867D01*
X81740955Y-76214875D01*
X81540987Y-75971213D01*
X81297324Y-75771245D01*
X81019332Y-75622655D01*
X80717693Y-75531154D01*
X80404000Y-75500258D01*
X80090306Y-75531154D01*
X79788667Y-75622655D01*
X79747960Y-75644414D01*
X79748325Y-75643248D01*
X79766686Y-75589373D01*
X79767760Y-75581293D01*
X79770200Y-75573513D01*
X79776314Y-75516912D01*
X79783810Y-75460498D01*
X79781199Y-75419912D01*
X79796603Y-73787000D01*
X100580928Y-73787000D01*
X100593188Y-73911482D01*
X100629498Y-74031180D01*
X100688463Y-74141494D01*
X100767815Y-74238185D01*
X100864506Y-74317537D01*
X100974820Y-74376502D01*
X101094518Y-74412812D01*
X101219000Y-74425072D01*
X102838250Y-74422000D01*
X102997000Y-74263250D01*
X102997000Y-72009000D01*
X103251000Y-72009000D01*
X103251000Y-74263250D01*
X103409750Y-74422000D01*
X105029000Y-74425072D01*
X105153482Y-74412812D01*
X105273180Y-74376502D01*
X105383494Y-74317537D01*
X105480185Y-74238185D01*
X105559537Y-74141494D01*
X105618502Y-74031180D01*
X105654812Y-73911482D01*
X105667072Y-73787000D01*
X105664000Y-72167750D01*
X105505250Y-72009000D01*
X103251000Y-72009000D01*
X102997000Y-72009000D01*
X100742750Y-72009000D01*
X100584000Y-72167750D01*
X100580928Y-73787000D01*
X79796603Y-73787000D01*
X79806681Y-72718809D01*
X80090307Y-72804846D01*
X80404000Y-72835742D01*
X80717694Y-72804846D01*
X81019333Y-72713345D01*
X81297325Y-72564755D01*
X81540987Y-72364787D01*
X81740955Y-72121125D01*
X81889545Y-71843133D01*
X81981046Y-71541493D01*
X82004200Y-71306405D01*
X82004200Y-70679595D01*
X95033800Y-70679595D01*
X95033800Y-71306406D01*
X95056954Y-71541494D01*
X95148455Y-71843133D01*
X95297045Y-72121125D01*
X95497013Y-72364787D01*
X95740676Y-72564755D01*
X96018668Y-72713345D01*
X96320307Y-72804846D01*
X96634000Y-72835742D01*
X96947694Y-72804846D01*
X97249333Y-72713345D01*
X97527325Y-72564755D01*
X97770987Y-72364787D01*
X97970955Y-72121125D01*
X98119545Y-71843133D01*
X98211046Y-71541493D01*
X98234200Y-71306405D01*
X98234200Y-70679594D01*
X98226590Y-70602328D01*
X98425000Y-70621870D01*
X98824909Y-70582482D01*
X99209450Y-70465833D01*
X99563847Y-70276405D01*
X99874477Y-70021477D01*
X99910978Y-69977000D01*
X100580928Y-69977000D01*
X100584000Y-71596250D01*
X100742750Y-71755000D01*
X102997000Y-71755000D01*
X102997000Y-69500750D01*
X103251000Y-69500750D01*
X103251000Y-71755000D01*
X105505250Y-71755000D01*
X105664000Y-71596250D01*
X105665739Y-70679595D01*
X108013800Y-70679595D01*
X108013800Y-71306406D01*
X108036954Y-71541494D01*
X108128455Y-71843133D01*
X108277045Y-72121125D01*
X108477013Y-72364787D01*
X108720676Y-72564755D01*
X108998668Y-72713345D01*
X109300307Y-72804846D01*
X109614000Y-72835742D01*
X109927694Y-72804846D01*
X110229333Y-72713345D01*
X110507325Y-72564755D01*
X110750987Y-72364787D01*
X110950955Y-72121125D01*
X111099545Y-71843133D01*
X111191046Y-71541493D01*
X111214200Y-71306405D01*
X111214200Y-70679594D01*
X111191046Y-70444506D01*
X111099545Y-70142867D01*
X110950955Y-69864875D01*
X110750987Y-69621213D01*
X110507324Y-69421245D01*
X110229332Y-69272655D01*
X109927693Y-69181154D01*
X109614000Y-69150258D01*
X109300306Y-69181154D01*
X108998667Y-69272655D01*
X108720675Y-69421245D01*
X108477013Y-69621213D01*
X108277045Y-69864876D01*
X108128455Y-70142868D01*
X108036954Y-70444507D01*
X108013800Y-70679595D01*
X105665739Y-70679595D01*
X105667072Y-69977000D01*
X105654812Y-69852518D01*
X105618502Y-69732820D01*
X105559537Y-69622506D01*
X105480185Y-69525815D01*
X105383494Y-69446463D01*
X105273180Y-69387498D01*
X105153482Y-69351188D01*
X105029000Y-69338928D01*
X103409750Y-69342000D01*
X103251000Y-69500750D01*
X102997000Y-69500750D01*
X102838250Y-69342000D01*
X101219000Y-69338928D01*
X101094518Y-69351188D01*
X100974820Y-69387498D01*
X100864506Y-69446463D01*
X100767815Y-69525815D01*
X100688463Y-69622506D01*
X100629498Y-69732820D01*
X100593188Y-69852518D01*
X100580928Y-69977000D01*
X99910978Y-69977000D01*
X100129405Y-69710847D01*
X100318833Y-69356451D01*
X100435482Y-68971910D01*
X100465000Y-68672211D01*
X100465000Y-67471790D01*
X100435482Y-67172091D01*
X100318833Y-66787549D01*
X100129405Y-66433153D01*
X99874477Y-66122523D01*
X99563847Y-65867595D01*
X99209451Y-65678167D01*
X98824910Y-65561518D01*
X98425000Y-65522130D01*
X98086165Y-65555503D01*
X98176609Y-65331996D01*
X98235578Y-65022321D01*
X98079718Y-64770000D01*
X96761000Y-64770000D01*
X96761000Y-66313644D01*
X96802300Y-66333597D01*
X96720596Y-66433153D01*
X96531167Y-66787549D01*
X96414518Y-67172090D01*
X96385000Y-67471789D01*
X96385000Y-68672210D01*
X96414518Y-68971909D01*
X96473417Y-69166074D01*
X96320306Y-69181154D01*
X96018667Y-69272655D01*
X95740675Y-69421245D01*
X95497013Y-69621213D01*
X95297045Y-69864876D01*
X95148455Y-70142868D01*
X95056954Y-70444507D01*
X95033800Y-70679595D01*
X82004200Y-70679595D01*
X82004200Y-70679594D01*
X81981046Y-70444506D01*
X81889545Y-70142867D01*
X81740955Y-69864875D01*
X81540987Y-69621213D01*
X81297324Y-69421245D01*
X81019332Y-69272655D01*
X80717693Y-69181154D01*
X80404000Y-69150258D01*
X80090306Y-69181154D01*
X79839337Y-69257284D01*
X79866045Y-66426256D01*
X80050823Y-66504571D01*
X80155227Y-66525246D01*
X80403200Y-66405444D01*
X80403200Y-64861800D01*
X80657200Y-64861800D01*
X80657200Y-66405444D01*
X80905173Y-66525246D01*
X81009577Y-66504571D01*
X81299824Y-66381555D01*
X81560495Y-66204278D01*
X81781572Y-65979553D01*
X81954559Y-65716017D01*
X82072809Y-65423796D01*
X82131778Y-65114121D01*
X82075073Y-65022321D01*
X95032422Y-65022321D01*
X95091391Y-65331996D01*
X95209641Y-65624217D01*
X95382628Y-65887753D01*
X95603705Y-66112478D01*
X95864376Y-66289755D01*
X96154623Y-66412771D01*
X96259027Y-66433446D01*
X96507000Y-66313644D01*
X96507000Y-64770000D01*
X95188282Y-64770000D01*
X95032422Y-65022321D01*
X82075073Y-65022321D01*
X81975918Y-64861800D01*
X80657200Y-64861800D01*
X80403200Y-64861800D01*
X80383200Y-64861800D01*
X80383200Y-64646832D01*
X100584000Y-64646832D01*
X100584000Y-65147168D01*
X100681611Y-65637891D01*
X100873081Y-66100141D01*
X101151053Y-66516156D01*
X101504844Y-66869947D01*
X101920859Y-67147919D01*
X102383109Y-67339389D01*
X102873832Y-67437000D01*
X103374168Y-67437000D01*
X103864891Y-67339389D01*
X104327141Y-67147919D01*
X104743156Y-66869947D01*
X105096947Y-66516156D01*
X105374919Y-66100141D01*
X105566389Y-65637891D01*
X105664000Y-65147168D01*
X105664000Y-65022321D01*
X108012422Y-65022321D01*
X108071391Y-65331996D01*
X108189641Y-65624217D01*
X108362628Y-65887753D01*
X108583705Y-66112478D01*
X108844376Y-66289755D01*
X109134623Y-66412771D01*
X109239027Y-66433446D01*
X109487000Y-66313644D01*
X109487000Y-64770000D01*
X109741000Y-64770000D01*
X109741000Y-66313644D01*
X109988973Y-66433446D01*
X110093377Y-66412771D01*
X110383624Y-66289755D01*
X110644295Y-66112478D01*
X110865372Y-65887753D01*
X111038359Y-65624217D01*
X111156609Y-65331996D01*
X111215578Y-65022321D01*
X124242422Y-65022321D01*
X124301391Y-65331996D01*
X124419641Y-65624217D01*
X124592628Y-65887753D01*
X124813705Y-66112478D01*
X125074376Y-66289755D01*
X125364623Y-66412771D01*
X125469027Y-66433446D01*
X125717000Y-66313644D01*
X125717000Y-64770000D01*
X124398282Y-64770000D01*
X124242422Y-65022321D01*
X111215578Y-65022321D01*
X111059718Y-64770000D01*
X109741000Y-64770000D01*
X109487000Y-64770000D01*
X108168282Y-64770000D01*
X108012422Y-65022321D01*
X105664000Y-65022321D01*
X105664000Y-64646832D01*
X105587787Y-64263679D01*
X108012422Y-64263679D01*
X108168282Y-64516000D01*
X109487000Y-64516000D01*
X109487000Y-62972356D01*
X109741000Y-62972356D01*
X109741000Y-64516000D01*
X111059718Y-64516000D01*
X111215578Y-64263679D01*
X124242422Y-64263679D01*
X124398282Y-64516000D01*
X125717000Y-64516000D01*
X125717000Y-62972356D01*
X125469027Y-62852554D01*
X125364623Y-62873229D01*
X125074376Y-62996245D01*
X124813705Y-63173522D01*
X124592628Y-63398247D01*
X124419641Y-63661783D01*
X124301391Y-63954004D01*
X124242422Y-64263679D01*
X111215578Y-64263679D01*
X111156609Y-63954004D01*
X111038359Y-63661783D01*
X110865372Y-63398247D01*
X110644295Y-63173522D01*
X110383624Y-62996245D01*
X110093377Y-62873229D01*
X109988973Y-62852554D01*
X109741000Y-62972356D01*
X109487000Y-62972356D01*
X109239027Y-62852554D01*
X109134623Y-62873229D01*
X108844376Y-62996245D01*
X108583705Y-63173522D01*
X108362628Y-63398247D01*
X108189641Y-63661783D01*
X108071391Y-63954004D01*
X108012422Y-64263679D01*
X105587787Y-64263679D01*
X105566389Y-64156109D01*
X105374919Y-63693859D01*
X105096947Y-63277844D01*
X104743156Y-62924053D01*
X104327141Y-62646081D01*
X103864891Y-62454611D01*
X103374168Y-62357000D01*
X102873832Y-62357000D01*
X102383109Y-62454611D01*
X101920859Y-62646081D01*
X101504844Y-62924053D01*
X101151053Y-63277844D01*
X100873081Y-63693859D01*
X100681611Y-64156109D01*
X100584000Y-64646832D01*
X80383200Y-64646832D01*
X80383200Y-64607800D01*
X80403200Y-64607800D01*
X80403200Y-63064156D01*
X80657200Y-63064156D01*
X80657200Y-64607800D01*
X81975918Y-64607800D01*
X82131778Y-64355479D01*
X82114298Y-64263679D01*
X95032422Y-64263679D01*
X95188282Y-64516000D01*
X96507000Y-64516000D01*
X96507000Y-62972356D01*
X96761000Y-62972356D01*
X96761000Y-64516000D01*
X98079718Y-64516000D01*
X98235578Y-64263679D01*
X98176609Y-63954004D01*
X98058359Y-63661783D01*
X97885372Y-63398247D01*
X97664295Y-63173522D01*
X97403624Y-62996245D01*
X97113377Y-62873229D01*
X97008973Y-62852554D01*
X96761000Y-62972356D01*
X96507000Y-62972356D01*
X96259027Y-62852554D01*
X96154623Y-62873229D01*
X95864376Y-62996245D01*
X95603705Y-63173522D01*
X95382628Y-63398247D01*
X95209641Y-63661783D01*
X95091391Y-63954004D01*
X95032422Y-64263679D01*
X82114298Y-64263679D01*
X82072809Y-64045804D01*
X81954559Y-63753583D01*
X81781572Y-63490047D01*
X81560495Y-63265322D01*
X81299824Y-63088045D01*
X81009577Y-62965029D01*
X80905173Y-62944354D01*
X80657200Y-63064156D01*
X80403200Y-63064156D01*
X80155227Y-62944354D01*
X80050823Y-62965029D01*
X79898088Y-63029763D01*
X79907695Y-62011390D01*
X79925141Y-61833463D01*
X79966536Y-61696356D01*
X80033771Y-61569905D01*
X80124293Y-61458914D01*
X80234648Y-61367622D01*
X80360630Y-61299503D01*
X80497442Y-61257153D01*
X80670155Y-61239000D01*
X125570720Y-61239000D01*
X125745537Y-61256141D01*
G37*
G04 #@! TD.AperFunction*
M02*
